<?xml version="1.0" encoding="iso-8859-1"?>
<!-- Generator: Adobe Illustrator 19.0.0, SVG Export Plug-In . SVG Version: 6.00 Build 0)  -->
<svg version="1.1" id="Capa_1" xmlns="http://www.w3.org/2000/svg" xmlns:xlink="http://www.w3.org/1999/xlink" x="0px" y="0px"
	 viewBox="0 0 512 512" style="enable-background:new 0 0 512 512;" xml:space="preserve">
<g>
	<g>
		<path style="fill:#fff" d="M414.32,461.913V50.087C414.32,22.472,391.853,0,364.233,0H147.746c-27.615,0-50.087,22.472-50.087,50.087v411.826
			c0,27.62,22.472,50.087,50.087,50.087h217.044c13.384,0,26.401-5.504,35.712-15.098
			C409.806,487.307,414.709,474.702,414.32,461.913z M376.532,473.645c-3.1,3.206-7.268,4.964-11.743,4.964H147.746
			c-9.205,0-16.696-7.491-16.696-16.696V50.087c0-9.205,7.491-16.696,16.696-16.696h216.487c9.205,0,16.696,7.491,16.696,16.696
			l0.006,412.327C381.062,466.599,379.498,470.589,376.532,473.645z"/>
	</g>
</g>
<g>
	<g>
		<rect style="fill:#fff" x="114.354" y="65.113" width="283.826" height="33.391"/>
	</g>
</g>
<g>
	<g>
		<rect style="fill:#fff" x="114.354" y="387.339" width="283.826" height="33.391"/>
	</g>
</g>
<g>
	<g>
		<path style="fill:#fff" d="M270.181,432.417h-27.826c-9.222,0-16.696,7.474-16.696,16.696s7.474,16.696,16.696,16.696h27.826
			c9.222,0,16.696-7.474,16.696-16.696S279.402,432.417,270.181,432.417z"/>
	</g>
</g>
<g>
</g>
<g>
</g>
<g>
</g>
<g>
</g>
<g>
</g>
<g>
</g>
<g>
</g>
<g>
</g>
<g>
</g>
<g>
</g>
<g>
</g>
<g>
</g>
<g>
</g>
<g>
</g>
<g>
</g>
</svg>
